<svg width="284" height="36" viewBox="0 0 284 36" fill="none" xmlns="http://www.w3.org/2000/svg">
<g id="logo">
<path id="balanca" fill-rule="evenodd" clip-rule="evenodd" d="M29.532 18.6456L32.0816 9.1293H21.4409V25.6861H19.432V9.1293H8.7914L11.341 18.6456H14.9657V19.647C14.9657 21.6375 14.1793 23.5297 12.7724 24.9366C11.3655 26.3435 9.47334 27.1299 7.48283 27.1299C5.49232 27.1299 3.60011 26.3435 2.19324 24.9366C0.786373 23.5359 0 21.6437 0 19.6532V18.6518H3.62469L6.05753 9.58392C5.81793 9.71293 5.54761 9.78665 5.25887 9.78665C4.34348 9.78665 3.60011 9.04329 3.60011 8.1279C3.60011 7.21251 4.34348 6.46914 5.25887 6.46914C5.7995 6.46914 6.2787 6.72717 6.57973 7.12036H18.1726V7.11422C17.761 6.35856 17.5459 5.5169 17.5459 4.6568C17.5459 3.79671 17.761 2.95504 18.1726 2.19939C18.5842 1.44373 19.1801 0.810947 19.9051 0.344038L20.4396 0L20.9802 0.350182C21.7051 0.810947 22.2949 1.44987 22.7065 2.20553C23.1181 2.96118 23.3332 3.80285 23.3332 4.66294C23.3332 5.52304 23.1181 6.3647 22.7065 7.12036V7.1265H34.2994C34.6004 6.72717 35.0796 6.47529 35.6202 6.47529C36.5356 6.47529 37.279 7.21866 37.279 8.13404C37.279 9.04943 36.5356 9.7928 35.6202 9.7928C35.3315 9.7928 35.055 9.71908 34.8216 9.59006L37.2544 18.6579H40.8791V19.6593C40.8791 21.6498 40.0927 23.542 38.6859 24.9489C37.279 26.3558 35.3868 27.1421 33.3963 27.1421C31.4058 27.1421 29.5136 26.3558 28.1067 24.9489C26.6998 23.542 25.9134 21.6498 25.9134 19.6593V18.6579H29.532V18.6456ZM17.976 27.0438C16.8702 27.0438 15.9671 27.947 15.9671 29.0528H17.976H19.9849H20.8942H22.9031H24.912C24.912 27.947 24.0089 27.0438 22.9031 27.0438H20.8942H19.9849H17.976ZM15.2483 30.3614H14.6585C13.5526 30.3614 12.6495 31.2645 12.6495 32.3703H15.2483H16.6613H24.2055H25.336H28.2234C28.2234 31.2645 27.3203 30.3614 26.2145 30.3614H25.336H24.2055H16.6674H15.2483ZM12.5635 33.6789H11.3471C10.2413 33.6789 9.33818 34.582 9.33818 35.6878H12.5635H13.3561H27.523H28.6535H31.5409C31.5409 34.582 30.6378 33.6789 29.532 33.6789H28.6535H27.523H13.3499H12.5635ZM32.3273 20.6546C27.4432 20.6546 31.203 26.4172 35.4175 24.74C36.0994 24.4697 36.7322 24.0581 37.2667 23.5236C38.0592 22.7311 38.5814 21.7358 38.778 20.6546H32.3273ZM31.6085 18.6456H35.1718L33.3901 11.9983L31.6085 18.6456ZM7.48283 12.0045L5.7012 18.6518H9.26445L7.48283 12.0045ZM20.4396 6.8439C20.6423 6.64116 20.8143 6.40771 20.9495 6.15582C21.2013 5.69506 21.3304 5.18515 21.3304 4.66294C21.3304 4.14074 21.2013 3.62469 20.9495 3.17007C20.8082 2.91818 20.6361 2.68473 20.4396 2.48199C20.2368 2.68473 20.0648 2.91818 19.9296 3.17007C19.6778 3.63083 19.5487 4.14074 19.5487 4.66294C19.5487 5.18515 19.6778 5.7012 19.9296 6.15582C20.0648 6.40771 20.2368 6.63502 20.4396 6.8439ZM12.8646 20.6546H6.41385C1.52974 20.6546 5.28959 26.4172 9.50405 24.74C10.186 24.4697 10.8188 24.0581 11.3533 23.5236C12.1458 22.7311 12.668 21.7358 12.8646 20.6546Z" fill="#F3BB93"/>
<path id="edson" d="M58.53 30.66H58.7C58.8813 30.66 59.04 30.6033 59.176 30.49C59.312 30.354 59.4253 30.1953 59.516 30.014C59.6293 29.8327 59.7087 29.64 59.754 29.436C59.822 29.232 59.856 29.0393 59.856 28.858V10.668C59.856 10.5093 59.822 10.328 59.754 10.124C59.7087 9.92 59.6293 9.72733 59.516 9.546C59.4253 9.36466 59.312 9.21733 59.176 9.104C59.04 8.968 58.8813 8.9 58.7 8.9H58.53V8.56H71.62V11.722H71.28C71.2347 11.2007 71.0307 10.7473 70.668 10.362C70.3053 9.954 69.7387 9.75 68.968 9.75H62.134V18.352H67.778C68.2993 18.352 68.73 18.1933 69.07 17.876C69.4327 17.5587 69.614 17.1847 69.614 16.754H69.954V21.004H69.614C69.614 20.596 69.444 20.2447 69.104 19.95C68.764 19.6553 68.322 19.508 67.778 19.508H62.134V29.81H69.58C70.0107 29.81 70.3847 29.708 70.702 29.504C71.0193 29.3 71.28 29.062 71.484 28.79C71.7107 28.4953 71.8693 28.1893 71.96 27.872C72.0733 27.532 72.13 27.2487 72.13 27.022H72.47V31H58.53V30.66ZM74.998 30.66H75.168C75.3266 30.66 75.474 30.592 75.61 30.456C75.746 30.32 75.8593 30.1613 75.95 29.98C76.0633 29.7987 76.1426 29.606 76.188 29.402C76.2333 29.1753 76.256 28.9713 76.256 28.79V10.668C76.256 10.5093 76.2333 10.328 76.188 10.124C76.1426 9.92 76.0746 9.72733 75.984 9.546C75.8933 9.36466 75.78 9.21733 75.644 9.104C75.508 8.968 75.3493 8.9 75.168 8.9H74.998V8.56H81.56C83.3506 8.56 84.96 8.87733 86.388 9.512C87.816 10.124 89.0173 10.9627 89.992 12.028C90.9893 13.0707 91.7486 14.272 92.27 15.632C92.7913 16.992 93.052 18.4087 93.052 19.882C93.052 21.2647 92.8026 22.6247 92.304 23.962C91.8053 25.2767 91.0573 26.4553 90.06 27.498C89.0626 28.5407 87.816 29.3907 86.32 30.048C84.824 30.6827 83.09 31 81.118 31H74.998V30.66ZM90.74 20.392C90.74 18.9413 90.4793 17.57 89.958 16.278C89.4366 14.986 88.7 13.864 87.748 12.912C86.8186 11.9373 85.708 11.1667 84.416 10.6C83.1466 10.0333 81.764 9.75 80.268 9.75H78.534V29.81H80.336C81.56 29.81 82.784 29.6287 84.008 29.266C85.2546 28.8807 86.3766 28.3027 87.374 27.532C88.3713 26.7387 89.176 25.7527 89.788 24.574C90.4226 23.3953 90.74 22.0013 90.74 20.392ZM109.753 24.982C109.753 26.1153 109.526 27.09 109.073 27.906C108.62 28.6993 108.03 29.3453 107.305 29.844C106.602 30.3427 105.798 30.7053 104.891 30.932C104.007 31.1587 103.123 31.272 102.239 31.272C101.332 31.272 100.55 31.1813 99.8931 31C99.2358 30.8187 98.6351 30.6487 98.0911 30.49C97.7285 30.3767 97.3998 30.286 97.1051 30.218C96.8105 30.1273 96.5158 30.082 96.2211 30.082V26.206H96.5611C96.5611 27.0673 96.7765 27.7587 97.2071 28.28C97.6605 28.7787 98.1818 29.164 98.7711 29.436C99.3605 29.708 99.9498 29.8893 100.539 29.98C101.128 30.048 101.559 30.082 101.831 30.082C102.806 30.082 103.644 29.946 104.347 29.674C105.05 29.3793 105.628 29.0053 106.081 28.552C106.534 28.076 106.863 27.5547 107.067 26.988C107.294 26.4213 107.407 25.8433 107.407 25.254C107.407 24.506 107.248 23.8827 106.931 23.384C106.614 22.8627 106.194 22.4093 105.673 22.024C105.174 21.6387 104.596 21.31 103.939 21.038C103.282 20.766 102.613 20.494 101.933 20.222C101.162 19.9273 100.403 19.6213 99.6551 19.304C98.9071 18.9867 98.2385 18.6013 97.6491 18.148C97.0598 17.672 96.5838 17.1167 96.2211 16.482C95.8585 15.8247 95.6771 15.02 95.6771 14.068C95.6771 13.0707 95.8698 12.2093 96.2551 11.484C96.6405 10.736 97.1505 10.124 97.7851 9.648C98.4425 9.172 99.1791 8.82067 99.9951 8.594C100.834 8.34467 101.684 8.22 102.545 8.22C103.134 8.22 103.69 8.26533 104.211 8.356C104.732 8.424 105.231 8.51467 105.707 8.628C106.092 8.71867 106.466 8.798 106.829 8.866C107.192 8.91133 107.543 8.934 107.883 8.934V12.436H107.543C107.498 11.2573 107.033 10.464 106.149 10.056C105.265 9.62533 104.041 9.41 102.477 9.41C101.57 9.41 100.822 9.56866 100.233 9.886C99.6665 10.1807 99.2131 10.5547 98.8731 11.008C98.5331 11.4387 98.2951 11.9147 98.1591 12.436C98.0458 12.9347 97.9891 13.3767 97.9891 13.762C97.9891 14.3967 98.1251 14.9407 98.3971 15.394C98.6918 15.8473 99.0771 16.244 99.5531 16.584C100.029 16.924 100.573 17.23 101.185 17.502C101.82 17.774 102.477 18.0347 103.157 18.284C103.928 18.5787 104.71 18.896 105.503 19.236C106.296 19.576 106.999 19.9953 107.611 20.494C108.246 20.9927 108.756 21.6047 109.141 22.33C109.549 23.0553 109.753 23.9393 109.753 24.982ZM124.109 8.22C125.877 8.22 127.464 8.53733 128.869 9.172C130.274 9.784 131.464 10.6227 132.439 11.688C133.436 12.7307 134.196 13.9547 134.717 15.36C135.261 16.7427 135.533 18.1933 135.533 19.712C135.533 21.412 135.216 22.976 134.581 24.404C133.969 25.832 133.119 27.056 132.031 28.076C130.943 29.096 129.674 29.9007 128.223 30.49C126.795 31.0567 125.265 31.34 123.633 31.34C121.888 31.34 120.312 31.0227 118.907 30.388C117.524 29.7533 116.346 28.9147 115.371 27.872C114.419 26.8293 113.682 25.628 113.161 24.268C112.64 22.908 112.379 21.4913 112.379 20.018C112.379 18.5673 112.64 17.1393 113.161 15.734C113.682 14.306 114.442 13.0367 115.439 11.926C116.459 10.8153 117.694 9.92 119.145 9.24C120.596 8.56 122.25 8.22 124.109 8.22ZM124.075 30.15C125.594 30.082 126.92 29.742 128.053 29.13C129.209 28.4953 130.172 27.702 130.943 26.75C131.714 25.7753 132.28 24.71 132.643 23.554C133.028 22.398 133.221 21.2533 133.221 20.12C133.221 18.8733 132.994 17.6153 132.541 16.346C132.088 15.0767 131.442 13.932 130.603 12.912C129.764 11.8693 128.756 11.0307 127.577 10.396C126.421 9.73867 125.118 9.41 123.667 9.41C122.262 9.41 121.004 9.72733 119.893 10.362C118.782 10.974 117.83 11.7673 117.037 12.742C116.266 13.7167 115.677 14.8047 115.269 16.006C114.861 17.2073 114.657 18.386 114.657 19.542C114.657 20.7887 114.895 22.0467 115.371 23.316C115.847 24.5627 116.504 25.696 117.343 26.716C118.182 27.736 119.168 28.5633 120.301 29.198C121.457 29.8327 122.715 30.15 124.075 30.15ZM142.086 30.66H142.256V31H138.482V30.66H138.652C138.811 30.66 138.958 30.592 139.094 30.456C139.253 30.32 139.378 30.1613 139.468 29.98C139.559 29.7987 139.627 29.606 139.672 29.402C139.74 29.1753 139.774 28.9713 139.774 28.79V10.668C139.774 10.5093 139.752 10.328 139.706 10.124C139.684 9.92 139.627 9.72733 139.536 9.546C139.446 9.36466 139.321 9.21733 139.162 9.104C139.004 8.968 138.811 8.9 138.584 8.9H138.414V8.56H141.848L154.19 28.008V10.668C154.19 10.5093 154.156 10.328 154.088 10.124C154.043 9.92 153.964 9.72733 153.85 9.546C153.76 9.36466 153.646 9.21733 153.51 9.104C153.374 8.968 153.216 8.9 153.034 8.9H152.864V8.56H156.672V8.9H156.502C156.321 8.9 156.162 8.968 156.026 9.104C155.89 9.21733 155.766 9.36466 155.652 9.546C155.562 9.72733 155.494 9.92 155.448 10.124C155.403 10.328 155.38 10.5093 155.38 10.668V31H153.272L140.964 11.484V28.79C140.964 28.9713 140.987 29.1753 141.032 29.402C141.078 29.606 141.146 29.7987 141.236 29.98C141.35 30.1613 141.474 30.32 141.61 30.456C141.746 30.592 141.905 30.66 142.086 30.66ZM182.468 24.982C182.468 26.1153 182.241 27.09 181.788 27.906C181.335 28.6993 180.745 29.3453 180.02 29.844C179.317 30.3427 178.513 30.7053 177.606 30.932C176.722 31.1587 175.838 31.272 174.954 31.272C174.047 31.272 173.265 31.1813 172.608 31C171.951 30.8187 171.35 30.6487 170.806 30.49C170.443 30.3767 170.115 30.286 169.82 30.218C169.525 30.1273 169.231 30.082 168.936 30.082V26.206H169.276C169.276 27.0673 169.491 27.7587 169.922 28.28C170.375 28.7787 170.897 29.164 171.486 29.436C172.075 29.708 172.665 29.8893 173.254 29.98C173.843 30.048 174.274 30.082 174.546 30.082C175.521 30.082 176.359 29.946 177.062 29.674C177.765 29.3793 178.343 29.0053 178.796 28.552C179.249 28.076 179.578 27.5547 179.782 26.988C180.009 26.4213 180.122 25.8433 180.122 25.254C180.122 24.506 179.963 23.8827 179.646 23.384C179.329 22.8627 178.909 22.4093 178.388 22.024C177.889 21.6387 177.311 21.31 176.654 21.038C175.997 20.766 175.328 20.494 174.648 20.222C173.877 19.9273 173.118 19.6213 172.37 19.304C171.622 18.9867 170.953 18.6013 170.364 18.148C169.775 17.672 169.299 17.1167 168.936 16.482C168.573 15.8247 168.392 15.02 168.392 14.068C168.392 13.0707 168.585 12.2093 168.97 11.484C169.355 10.736 169.865 10.124 170.5 9.648C171.157 9.172 171.894 8.82067 172.71 8.594C173.549 8.34467 174.399 8.22 175.26 8.22C175.849 8.22 176.405 8.26533 176.926 8.356C177.447 8.424 177.946 8.51467 178.422 8.628C178.807 8.71867 179.181 8.798 179.544 8.866C179.907 8.91133 180.258 8.934 180.598 8.934V12.436H180.258C180.213 11.2573 179.748 10.464 178.864 10.056C177.98 9.62533 176.756 9.41 175.192 9.41C174.285 9.41 173.537 9.56866 172.948 9.886C172.381 10.1807 171.928 10.5547 171.588 11.008C171.248 11.4387 171.01 11.9147 170.874 12.436C170.761 12.9347 170.704 13.3767 170.704 13.762C170.704 14.3967 170.84 14.9407 171.112 15.394C171.407 15.8473 171.792 16.244 172.268 16.584C172.744 16.924 173.288 17.23 173.9 17.502C174.535 17.774 175.192 18.0347 175.872 18.284C176.643 18.5787 177.425 18.896 178.218 19.236C179.011 19.576 179.714 19.9953 180.326 20.494C180.961 20.9927 181.471 21.6047 181.856 22.33C182.264 23.0553 182.468 23.9393 182.468 24.982ZM196.627 30.66H196.797C197.341 30.66 197.613 30.4107 197.613 29.912C197.613 29.7307 197.579 29.538 197.511 29.334L194.451 21.072H188.501L185.543 29.198C185.475 29.3793 185.441 29.5493 185.441 29.708C185.441 30.0027 185.521 30.2407 185.679 30.422C185.838 30.5807 186.008 30.66 186.189 30.66H186.359V31H182.585V30.66H182.755C183.05 30.66 183.333 30.49 183.605 30.15C183.9 29.7873 184.138 29.368 184.319 28.892L192.105 8.152L199.721 28.688C199.88 29.1413 200.095 29.5833 200.367 30.014C200.662 30.4447 201.036 30.66 201.489 30.66H201.659V31H196.627V30.66ZM188.841 19.916H194.077L191.459 12.81L188.841 19.916ZM203.694 30.66H203.864C204.045 30.66 204.204 30.6033 204.34 30.49C204.476 30.354 204.589 30.1953 204.68 30.014C204.793 29.8327 204.873 29.64 204.918 29.436C204.986 29.232 205.02 29.0393 205.02 28.858V10.668C205.02 10.5093 204.986 10.328 204.918 10.124C204.873 9.92 204.793 9.72733 204.68 9.546C204.589 9.36466 204.476 9.21733 204.34 9.104C204.204 8.968 204.045 8.9 203.864 8.9H203.694V8.56H208.59V8.9H208.42C208.239 8.9 208.08 8.968 207.944 9.104C207.808 9.21733 207.695 9.36466 207.604 9.546C207.513 9.72733 207.434 9.92 207.366 10.124C207.321 10.328 207.298 10.5093 207.298 10.668V29.742H214.744C215.175 29.742 215.549 29.64 215.866 29.436C216.183 29.232 216.444 28.9827 216.648 28.688C216.875 28.3707 217.033 28.042 217.124 27.702C217.237 27.3393 217.294 27.0107 217.294 26.716H217.634V31H203.694V30.66ZM217.638 9.75C217.638 9.886 217.672 10.056 217.74 10.26L223.724 26.376L229.708 10.09C229.731 10.0447 229.754 9.97667 229.776 9.886C229.799 9.79533 229.81 9.72733 229.81 9.682C229.81 9.41 229.697 9.21733 229.47 9.104C229.266 8.968 229.074 8.9 228.892 8.9V8.56H232.598V8.9C232.258 8.9 231.941 8.99067 231.646 9.172C231.374 9.35333 231.159 9.65933 231 10.09L223.214 31.408L215.258 10.192C215.122 9.852 214.918 9.55733 214.646 9.308C214.397 9.05867 214.08 8.92267 213.694 8.9V8.56H218.522V8.9C218.318 8.9 218.114 8.97933 217.91 9.138C217.729 9.274 217.638 9.478 217.638 9.75ZM241.784 30.66H241.954C242.498 30.66 242.77 30.4107 242.77 29.912C242.77 29.7307 242.736 29.538 242.668 29.334L239.608 21.072H233.658L230.7 29.198C230.632 29.3793 230.598 29.5493 230.598 29.708C230.598 30.0027 230.677 30.2407 230.836 30.422C230.994 30.5807 231.164 30.66 231.346 30.66H231.516V31H227.742V30.66H227.912C228.206 30.66 228.49 30.49 228.762 30.15C229.056 29.7873 229.294 29.368 229.476 28.892L237.262 8.152L244.878 28.688C245.036 29.1413 245.252 29.5833 245.524 30.014C245.818 30.4447 246.192 30.66 246.646 30.66H246.816V31H241.784V30.66ZM233.998 19.916H239.234L236.616 12.81L233.998 19.916ZM254.298 30.66H254.468V31H249.64V30.66H249.81C249.991 30.66 250.15 30.592 250.286 30.456C250.422 30.32 250.535 30.1613 250.626 29.98C250.739 29.7987 250.819 29.606 250.864 29.402C250.909 29.1753 250.932 28.9713 250.932 28.79V9.818H246.988C246.625 9.818 246.308 9.89733 246.036 10.056C245.764 10.2147 245.537 10.4187 245.356 10.668C245.175 10.8947 245.039 11.1553 244.948 11.45C244.857 11.722 244.812 11.994 244.812 12.266H244.472V8.56H259.738V12.266H259.398C259.398 11.994 259.353 11.722 259.262 11.45C259.171 11.1553 259.035 10.8947 258.854 10.668C258.673 10.4187 258.446 10.2147 258.174 10.056C257.902 9.89733 257.585 9.818 257.222 9.818H253.21V28.79C253.21 28.9713 253.233 29.1753 253.278 29.402C253.323 29.606 253.391 29.7987 253.482 29.98C253.595 30.1613 253.709 30.32 253.822 30.456C253.958 30.592 254.117 30.66 254.298 30.66ZM261.736 8.56H266.598V8.9H266.428C266.27 8.9 266.122 8.968 265.986 9.104C265.85 9.21733 265.737 9.36466 265.646 9.546C265.556 9.70467 265.476 9.89733 265.408 10.124C265.363 10.328 265.34 10.5093 265.34 10.668V28.79C265.34 28.9713 265.363 29.1753 265.408 29.402C265.454 29.606 265.522 29.7987 265.612 29.98C265.726 30.1613 265.839 30.32 265.952 30.456C266.088 30.592 266.247 30.66 266.428 30.66H266.598V31H261.736V30.66H261.906C262.088 30.66 262.246 30.6033 262.382 30.49C262.518 30.354 262.632 30.1953 262.722 30.014C262.836 29.81 262.915 29.606 262.96 29.402C263.006 29.1753 263.028 28.9713 263.028 28.79V10.668C263.028 10.5093 263.006 10.328 262.96 10.124C262.915 9.92 262.836 9.72733 262.722 9.546C262.632 9.36466 262.518 9.21733 262.382 9.104C262.246 8.968 262.088 8.9 261.906 8.9H261.736V8.56Z" fill="white"/>
</g>
</svg>
